<?xml version="1.0" encoding="UTF-8" standalone="no"?>
<!DOCTYPE svg PUBLIC "-//W3C//DTD SVG 1.1//EN" "http://www.w3.org/Graphics/SVG/1.1/DTD/svg11.dtd">
<svg version="1.1" xmlns="http://www.w3.org/2000/svg" xmlns:xlink="http://www.w3.org/1999/xlink" preserveAspectRatio="xMidYMid meet" viewBox="0 0 640 640" width="640" height="640"><defs><path d="M320 0C143.29 0 0 143.26 0 320C0 461.38 91.69 581.33 218.84 623.65C234.83 626.61 240.7 616.71 240.7 608.25C240.7 600.62 240.4 575.41 240.27 548.68C151.24 568.03 132.46 510.92 132.46 510.92C117.9 473.93 96.93 464.1 96.93 464.1C67.89 444.23 99.11 444.64 99.11 444.64C131.25 446.9 148.17 477.62 148.17 477.62C176.71 526.54 223.03 512.4 241.29 504.22C244.16 483.54 252.45 469.42 261.61 461.43C190.53 453.34 115.81 425.9 115.81 303.28C115.81 268.35 128.31 239.8 148.78 217.39C145.46 209.33 134.51 176.78 151.88 132.71C151.88 132.71 178.75 124.11 239.91 165.51C265.43 158.42 292.81 154.86 320 154.74C347.2 154.86 374.59 158.42 400.17 165.51C461.25 124.11 488.08 132.71 488.08 132.71C505.5 176.78 494.54 209.33 491.22 217.39C511.74 239.8 524.15 268.35 524.15 303.28C524.15 426.19 449.29 453.25 378.03 461.18C389.51 471.11 399.74 490.58 399.74 520.44C399.74 563.25 399.37 597.71 399.37 608.25C399.37 616.77 405.13 626.75 421.35 623.6C548.43 581.24 640 461.34 640 320C640 143.26 496.73 0 320 0" id="b1hPgyZ0ch"></path><path d="M121.2 459.45C120.5 461.04 118 461.52 115.72 460.42C113.4 459.38 112.09 457.21 112.84 455.62C113.53 453.98 116.04 453.53 118.36 454.62C120.68 455.67 122.01 457.85 121.2 459.45C121.2 459.45 121.2 459.45 121.2 459.45" id="db6XxhoYFs"></path><path d="M134.16 473.9C132.64 475.32 129.65 474.66 127.63 472.43C125.54 470.2 125.14 467.21 126.69 465.78C128.26 464.36 131.16 465.02 133.26 467.25C135.35 469.51 135.76 472.47 134.16 473.9C134.16 473.9 134.16 473.9 134.16 473.9" id="a1jfS64Dmt"></path><path d="M146.78 492.34C144.82 493.7 141.61 492.42 139.63 489.57C137.67 486.73 137.67 483.32 139.67 481.95C141.66 480.58 144.82 481.81 146.83 484.64C148.78 487.52 148.78 490.94 146.78 492.34C146.78 492.34 146.78 492.34 146.78 492.34" id="e3RjgscXv"></path><path d="M164.07 510.14C162.31 512.07 158.58 511.55 155.84 508.92C153.04 506.34 152.26 502.67 154.02 500.74C155.8 498.8 159.56 499.35 162.31 501.96C165.09 504.54 165.94 508.23 164.07 510.14C164.07 510.14 164.07 510.14 164.07 510.14" id="fhh69k32f"></path><path d="M187.91 520.48C187.14 522.99 183.54 524.12 179.92 523.06C176.3 521.96 173.93 519.03 174.66 516.49C175.41 513.97 179.03 512.78 182.68 513.92C186.29 515.02 188.66 517.93 187.91 520.48C187.91 520.48 187.91 520.48 187.91 520.48" id="a7tkBnW1e4"></path><path d="M214.1 522.4C214.19 525.04 211.12 527.22 207.31 527.27C203.49 527.36 200.39 525.22 200.35 522.62C200.35 519.96 203.35 517.79 207.18 517.73C210.98 517.65 214.1 519.77 214.1 522.4C214.1 522.4 214.1 522.4 214.1 522.4" id="a1X7Y8KEVm"></path><path d="M238.47 518.25C238.93 520.82 236.28 523.47 232.5 524.17C228.79 524.85 225.35 523.26 224.88 520.71C224.42 518.07 227.11 515.42 230.82 514.74C234.6 514.08 237.99 515.63 238.47 518.25C238.47 518.25 238.47 518.25 238.47 518.25" id="ctBjmfW3T"></path></defs><g><g><g><use xlink:href="#b1hPgyZ0ch" opacity="1" fill="#ffffff" fill-opacity="1"></use><g><use xlink:href="#b1hPgyZ0ch" opacity="1" fill-opacity="0" stroke="#000000" stroke-width="1" stroke-opacity="0"></use></g></g><g><use xlink:href="#db6XxhoYFs" opacity="1" fill="#ffffff" fill-opacity="1"></use><g><use xlink:href="#db6XxhoYFs" opacity="1" fill-opacity="0" stroke="#000000" stroke-width="1" stroke-opacity="0"></use></g></g><g><use xlink:href="#a1jfS64Dmt" opacity="1" fill="#ffffff" fill-opacity="1"></use><g><use xlink:href="#a1jfS64Dmt" opacity="1" fill-opacity="0" stroke="#000000" stroke-width="1" stroke-opacity="0"></use></g></g><g><use xlink:href="#e3RjgscXv" opacity="1" fill="#ffffff" fill-opacity="1"></use><g><use xlink:href="#e3RjgscXv" opacity="1" fill-opacity="0" stroke="#000000" stroke-width="1" stroke-opacity="0"></use></g></g><g><use xlink:href="#fhh69k32f" opacity="1" fill="#ffffff" fill-opacity="1"></use><g><use xlink:href="#fhh69k32f" opacity="1" fill-opacity="0" stroke="#000000" stroke-width="1" stroke-opacity="0"></use></g></g><g><use xlink:href="#a7tkBnW1e4" opacity="1" fill="#ffffff" fill-opacity="1"></use><g><use xlink:href="#a7tkBnW1e4" opacity="1" fill-opacity="0" stroke="#000000" stroke-width="1" stroke-opacity="0"></use></g></g><g><use xlink:href="#a1X7Y8KEVm" opacity="1" fill="#ffffff" fill-opacity="1"></use><g><use xlink:href="#a1X7Y8KEVm" opacity="1" fill-opacity="0" stroke="#000000" stroke-width="1" stroke-opacity="0"></use></g></g><g><use xlink:href="#ctBjmfW3T" opacity="1" fill="#ffffff" fill-opacity="1"></use><g><use xlink:href="#ctBjmfW3T" opacity="1" fill-opacity="0" stroke="#000000" stroke-width="1" stroke-opacity="0"></use></g></g></g></g></svg>